<svg width="1440" height="558" viewBox="0 0 1440 558" fill="none" xmlns="http://www.w3.org/2000/svg">
<path d="M327 478.5V557.5H419.5V478.5L327 478.5Z" fill="url(#paint0_linear)"/>
<path d="M518.5 557.5V478.5H419.5V557.5H518.5Z" fill="url(#paint1_linear)"/>
<path d="M614.5 557.5V478.5H518.5V557.5H614.5Z" fill="url(#paint2_linear)"/>
<path d="M810.5 478.5V557.5H907.5V478.5H810.5Z" fill="url(#paint3_linear)"/>
<path d="M1007.5 557.5V478.5H907.5V557.5H1007.5Z" fill="url(#paint4_linear)"/>
<path d="M1106.5 557.5V478.5H1007.5V557.5H1106.5Z" fill="url(#paint5_linear)"/>
<path d="M1200.5 338.5V268.5L1106.5 268.5V338.5H1200.5Z" fill="url(#paint6_linear)"/>
<path d="M1007.5 268.5V338.5H1106.5V268.5L1007.5 268.5Z" fill="url(#paint7_linear)"/>
<path d="M907.5 268.5V338.5H1007.5V268.5L907.5 268.5Z" fill="url(#paint8_linear)"/>
<path d="M810.5 268.5V338.5H907.5V268.5L810.5 268.5Z" fill="url(#paint9_linear)"/>
<path d="M715.5 268.5V338.5H810.5V268.5L715.5 268.5Z" fill="url(#paint10_linear)"/>
<path d="M518.5 268.5V338.5H614.5V268.5L518.5 268.5Z" fill="url(#paint11_linear)"/>
<path d="M419.5 268.5V338.5H518.5V268.5L419.5 268.5Z" fill="url(#paint12_linear)"/>
<path d="M327 268.5V338.5H419.5V268.5L327 268.5Z" fill="url(#paint13_linear)"/>
<path d="M128 478.5V557.5H226.5V478.5H128Z" fill="url(#paint14_linear)"/>
<path d="M327 557.5V478.5H226.5V557.5H327Z" fill="url(#paint15_linear)"/>
<path d="M327 478.5V408.5H226.5V478.5H327Z" fill="url(#paint16_linear)"/>
<path d="M128 478.5H226.5V408.5H128V478.5Z" fill="url(#paint17_linear)"/>
<path d="M30.5002 478.5L30.5002 557.5H128V478.5H30.5002Z" fill="url(#paint18_linear)"/>
<path d="M128 478.5V408.5H30.5002L30.5002 478.5H128Z" fill="url(#paint19_linear)"/>
<path d="M128 338.5H30.5002L30.5002 408.5H128V338.5Z" fill="url(#paint20_linear)"/>
<path d="M128 268.5L30.5002 268.5L30.5002 338.5H128L128 268.5Z" fill="url(#paint21_linear)"/>
<path d="M226.5 338.5L226.5 268.5L128 268.5L128 338.5H226.5Z" fill="url(#paint22_linear)"/>
<path d="M128 408.5H226.5V338.5H128V408.5Z" fill="url(#paint23_linear)"/>
<path d="M226.5 408.5H327V338.5H226.5V408.5Z" fill="url(#paint24_linear)"/>
<path d="M327 338.5V268.5L226.5 268.5L226.5 338.5H327Z" fill="url(#paint25_linear)"/>
<path d="M419.5 408.5V338.5H327V408.5H419.5Z" fill="url(#paint26_linear)"/>
<path d="M327 478.5L419.5 478.5V408.5H327V478.5Z" fill="url(#paint27_linear)"/>
<path d="M419.5 478.5H518.5V408.5H490H476.8H461H419.5V478.5Z" fill="url(#paint28_linear)"/>
<path d="M518.5 338.5H419.5V408.5H461H476.8H490H518.5V338.5Z" fill="url(#paint29_linear)"/>
<path d="M614.5 408.5V338.5H518.5V408.5H553H586.102H614.5Z" fill="url(#paint30_linear)"/>
<path d="M518.5 478.5H614.5V408.5H586.102H553H518.5V478.5Z" fill="url(#paint31_linear)"/>
<path d="M614.5 478.5H715.5V408.5H682.5H657H614.5V478.5Z" fill="url(#paint32_linear)"/>
<path d="M614.5 478.5V557.5H715.5V478.5H614.5Z" fill="url(#paint33_linear)"/>
<path d="M715.5 338.5H614.5V408.5H657H682.5H715.5V338.5Z" fill="url(#paint34_linear)"/>
<path d="M715.5 338.5V268.5L614.5 268.5V338.5H715.5Z" fill="url(#paint35_linear)"/>
<path d="M810.5 408.5V338.5H715.5V408.5H757.891H771H810.5Z" fill="url(#paint36_linear)"/>
<path d="M715.5 408.5V478.5H810.5V408.5H771H757.891H715.5Z" fill="url(#paint37_linear)"/>
<path d="M810.5 557.5V478.5H715.5V557.5H810.5Z" fill="url(#paint38_linear)"/>
<path d="M810.5 478.5H907.5V408.5H897.5H881.5H859.5H850.5H837H810.5V478.5Z" fill="url(#paint39_linear)"/>
<path d="M907.5 338.5H810.5V408.5H837H850.5H859.5H881.5H897.5H907.5V338.5Z" fill="url(#paint40_linear)"/>
<path d="M1007.5 408.5V338.5H907.5V408.5H955H959H969.12H974H985.555H997H1007.5Z" fill="url(#paint41_linear)"/>
<path d="M907.5 478.5H1007.5V408.5H997H985.555H974H969.12H959H955H907.5V478.5Z" fill="url(#paint42_linear)"/>
<path d="M1106.5 408.5H1106H1007.5V478.5H1106.5V408.5Z" fill="url(#paint43_linear)"/>
<path d="M1106.5 338.5H1007.5V408.5H1106H1106.5V338.5Z" fill="url(#paint44_linear)"/>
<path d="M1200.5 338.5H1106.5V408.5H1115L1200.5 408.5V338.5Z" fill="url(#paint45_linear)"/>
<path d="M1106.5 478.5H1200.5V408.5L1115 408.5H1106.5V478.5Z" fill="url(#paint46_linear)"/>
<path d="M1106.5 478.5V557.5H1200.5V478.5H1106.5Z" fill="url(#paint47_linear)"/>
<path d="M1296.5 557.5V478.5H1200.5V557.5H1296.5Z" fill="url(#paint48_linear)"/>
<path d="M1296.5 408.5H1200.5V478.5H1296.5V408.5Z" fill="url(#paint49_linear)"/>
<path d="M1200.5 268.5V338.5H1296.5V268.5L1200.5 268.5Z" fill="url(#paint50_linear)"/>
<path d="M1200.5 338.5V408.5H1296.5V338.5H1200.5Z" fill="url(#paint51_linear)"/>
<path d="M1396.5 338.5V268.5L1296.5 268.5V338.5H1396.5Z" fill="url(#paint52_linear)"/>
<path d="M1296.5 408.5L1396.5 408.5V338.5H1296.5V408.5Z" fill="url(#paint53_linear)"/>
<path d="M1296.5 478.5L1396.5 478.5V408.5L1296.5 408.5V478.5Z" fill="url(#paint54_linear)"/>
<path d="M1296.5 478.5V557.5H1396.5V478.5L1296.5 478.5Z" fill="url(#paint55_linear)"/>
<path d="M1396.5 268.5V338.5V408.5V478.5H1440.27L1441 268.5L1396.5 268.5Z" fill="url(#paint56_linear)"/>
<path d="M1396.5 478.5V557.5H1440L1440.27 478.5H1396.5Z" fill="url(#paint57_linear)"/>
<path d="M-0.5 268.5V338.5H30.5002L30.5002 268.5L-0.5 268.5Z" fill="url(#paint58_linear)"/>
<path d="M-0.5 338.5L-0.499993 408.5H30.5002L30.5002 338.5H-0.5Z" fill="url(#paint59_linear)"/>
<path d="M-0.499993 408.5L-0.499997 478.5H30.5002L30.5002 408.5H-0.499993Z" fill="url(#paint60_linear)"/>
<path d="M-0.499997 478.5L-0.5 557.5H30.5002L30.5002 478.5H-0.499997Z" fill="url(#paint61_linear)"/>
<path d="M30.5002 268V268.5M30.5002 558V557.5M-0.499987 268L-0.5 558M128 268V268.5M128 558V557.5M226.5 268V268.5M226.5 558V557.5M327 268V268.5M327 558V557.5M419.5 268V268.5M419.5 558V557.5M518.5 268V268.5M518.5 558V557.5M614.5 268V268.5M614.5 558V557.5M715.5 268V268.5M715.5 558V557.5M810.5 268V268.5M810.5 558V557.5M907.5 268V268.5M907.5 558V557.5M1007.5 268V268.5M1007.5 558V557.5M1106.5 268V268.5M1106.5 558V557.5M1200.5 268V268.5M1200.5 558V557.5M1296.5 268V268.5M1296.5 558V557.5M1396.5 268V268.5M1396.5 558V557.5M-0.5 338.5H30.5002M-0.5 338.5V268.5L30.5002 268.5M-0.5 338.5L-0.499993 408.5M1440 338.5H1396.5M-0.499993 408.5H30.5002M-0.499993 408.5L-0.499997 478.5M1440 408.5H1396.5M-0.499997 478.5H30.5002M-0.499997 478.5L-0.5 557.5H30.5002M1441 478.5H1440.27M327 478.5V557.5M327 478.5L419.5 478.5M327 478.5H226.5M327 478.5V408.5M327 557.5H419.5M327 557.5H226.5M419.5 557.5V478.5M419.5 557.5H518.5M419.5 478.5H518.5M419.5 478.5V408.5M518.5 557.5V478.5M518.5 557.5H614.5M518.5 478.5H614.5M518.5 478.5V408.5M614.5 557.5V478.5M614.5 557.5H715.5M614.5 478.5V408.5M614.5 478.5H715.5M810.5 478.5V557.5M810.5 478.5H907.5M810.5 478.5H715.5M810.5 478.5V408.5M810.5 557.5H907.5M810.5 557.5H715.5M907.5 557.5V478.5M907.5 557.5H1007.5M907.5 478.5H1007.5M907.5 478.5V408.5M1007.5 557.5V478.5M1007.5 557.5H1106.5M1007.5 478.5H1106.5M1007.5 478.5V408.5M1106.5 557.5V478.5M1106.5 557.5H1200.5M1106.5 478.5V408.5M1106.5 478.5H1200.5M1200.5 338.5V268.5M1200.5 338.5H1106.5M1200.5 338.5V408.5M1200.5 338.5H1296.5M1200.5 268.5L1106.5 268.5M1200.5 268.5L1296.5 268.5M1106.5 268.5V338.5M1106.5 268.5L1007.5 268.5M1106.5 338.5H1007.5M1106.5 338.5V408.5M1007.5 268.5V338.5M1007.5 268.5L907.5 268.5M1007.5 338.5H907.5M1007.5 338.5V408.5M907.5 268.5V338.5M907.5 268.5L810.5 268.5M907.5 338.5H810.5M907.5 338.5V408.5M810.5 268.5V338.5M810.5 268.5L715.5 268.5M810.5 338.5H715.5M810.5 338.5V408.5M715.5 268.5V338.5M715.5 268.5L614.5 268.5M715.5 338.5H614.5M715.5 338.5V408.5M614.5 268.5V338.5M614.5 268.5L518.5 268.5M614.5 338.5H518.5M614.5 338.5V408.5M518.5 268.5V338.5M518.5 268.5L419.5 268.5M518.5 338.5H419.5M518.5 338.5V408.5M419.5 268.5V338.5M419.5 268.5L327 268.5M419.5 338.5H327M419.5 338.5V408.5M327 268.5V338.5M327 268.5L226.5 268.5M327 338.5V408.5M327 338.5H226.5M897.5 408.5H810.5M897.5 408.5H907.5M897.5 408.5H881.5M881.5 408.5H859.5H850.5H837H810.5M881.5 408.5H907.5M997 408.5H907.5M997 408.5H985.555M997 408.5H1007.5M985.555 408.5H974H969.12H959H955H907.5M985.555 408.5H1007.5M128 478.5V557.5M128 478.5H226.5M128 478.5V408.5M128 478.5H30.5002M128 557.5H226.5M128 557.5H30.5002M226.5 557.5V478.5M226.5 478.5V408.5M327 408.5H226.5M327 408.5H419.5M226.5 408.5H128M226.5 408.5V338.5M128 408.5H30.5002M128 408.5V338.5M30.5002 478.5L30.5002 557.5M30.5002 478.5L30.5002 408.5M30.5002 408.5L30.5002 338.5M128 338.5H30.5002M128 338.5L128 268.5M128 338.5H226.5M30.5002 338.5L30.5002 268.5M128 268.5L30.5002 268.5M128 268.5L226.5 268.5M226.5 338.5L226.5 268.5M419.5 408.5H461H476.8H490H518.5M419.5 408.5H518.5M518.5 408.5H553H586.102H614.5M518.5 408.5H614.5M614.5 408.5H657H682.5H715.5M614.5 408.5H715.5M715.5 478.5V408.5M715.5 478.5V557.5M715.5 408.5H757.891H771H810.5M715.5 408.5H810.5M1007.5 408.5H1106H1106.5M1007.5 408.5H1106.5M1106.5 408.5H1115L1200.5 408.5M1106.5 408.5L1200.5 408.5M1200.5 408.5V478.5M1200.5 408.5H1296.5M1200.5 478.5V557.5M1200.5 478.5H1296.5M1200.5 557.5H1296.5M1296.5 557.5V478.5M1296.5 557.5H1396.5M1296.5 478.5V408.5M1296.5 478.5L1396.5 478.5M1296.5 408.5V338.5M1296.5 408.5L1396.5 408.5M1296.5 338.5V268.5M1296.5 338.5H1396.5M1296.5 268.5L1396.5 268.5M1396.5 338.5V268.5M1396.5 338.5V408.5M1396.5 268.5L1441 268.5L1440.27 478.5M1396.5 408.5V478.5M1396.5 478.5V557.5M1396.5 478.5H1440.27M1396.5 557.5H1440L1440.27 478.5" stroke="#8054CE"/>
<g filter="url(#filter0_d)">
<path d="M9.05991e-05 268.5V232V213.5L7.62939e-06 213.5L9.05991e-05 203.5V178.595V156.5V150V135.453V115.231L0 100.5L9.05991e-05 100.5V95.5001V78.5001V61.5001V60.5V46.4742V36.5001L39 36.5L38.9997 36.5001H98.4997L98.5 36.5H165L165 36.5001H224.417L287.5 36.5L287.5 36.5001H348L348 36.5H404L404 36.5001H466.5L466.5 36.5H529.5L529.5 36.5001H591L591 36.5H650V36.5001H717H776.5H836L836 36.5H895.5L895.5 36.5001H959L959 36.5H1014.5L1014.5 36.5001H1078.5L1078.5 36.5H1147.5L1147.5 36.5001H1197.5L1197.5 36.5H1259.5L1259.5 36.5001H1325.5L1325.5 36.5H1386L1386 36.5001H1440.5L1440.5 46.4742L1440.5 61.5001V71.5L1440.5 78.5001V95.5001V112V115.231V135.453V156.5L1440.5 161.5L1440.5 178.595V203.5L1440.5 224.5L1440.5 231.5L1440.5 268.5H1396.73H1296.71H1200.5H1106L1007.04 268.5H907.621L810 268.5L715.5 268.5H614.5H519L419.5 268.5L327.155 268.5L226.565 268.5H128H30.5H9.05991e-05Z" fill="url(#paint62_linear)"/>
<path d="M9.05991e-05 268.5V36M9.05991e-05 268.5H30.5L70.9603 231.975M9.05991e-05 268.5V232L70.9603 231.975M9.05991e-05 268.5H226.565M9.05991e-05 36.5001H224.417M9.05991e-05 36.5001V46.4742H22.7918M9.05991e-05 36.5001L39 36.5L22.7918 46.4742M717 36.5L716.935 46.4742M776.5 36.5L777.94 46.4742M226.544 268.528L226.565 268.5M224.898 36.1212L224.417 36.5001M70.9603 231.975L102.504 203.5M70.9603 231.975L162.661 231.944M12.6788 203.5H102.504M12.6788 203.5L44.2562 178.595M12.6788 203.5L7.62939e-06 213.5L9.05991e-05 203.5H12.6788ZM102.504 203.5L130.093 178.595M102.504 203.5H189.634M130.093 178.595H44.2562M130.093 178.595L154.569 156.5M130.093 178.595H213.252M44.2562 178.595H9.05991e-05V156.5H72.2699M44.2562 178.595L72.2699 156.5M72.2699 156.5H154.569M72.2699 156.5L98.955 135.453M154.569 156.5L177.883 135.453M154.569 156.5H234.204M177.883 135.453H98.955M177.883 135.453L200.285 115.231M177.883 135.453H254.163M98.955 135.453L124.595 115.231M98.955 135.453H21.1472M124.595 115.231L200.285 115.231M124.595 115.231L149.612 95.5001M124.595 115.231L50.5455 115.231M200.285 115.231L222.142 95.5001M200.285 115.231L273.339 115.231M222.142 95.5001H149.612M222.142 95.5001L240.974 78.5001M222.142 95.5001H292.05M149.612 95.5001L171.166 78.5001M149.612 95.5001H79.2289M171.166 78.5001H240.974M171.166 78.5001L192.72 61.5001M171.166 78.5001H103.943M240.974 78.5001L259.806 61.5001M240.974 78.5001H308.171M259.806 61.5001H192.72M259.806 61.5001L276.451 46.4742M259.806 61.5001H324.292M192.72 61.5001L211.771 46.4742M192.72 61.5001H128.656M211.771 46.4742H276.451M211.771 46.4742L224.417 36.5001M211.771 46.4742H150.5M276.451 46.4742L287.5 36.5L224.417 36.5001M276.451 46.4742H338.541M224.417 36.5001H1440.5V268.5L226.565 268.5M50.5455 115.231L21.1472 135.453M50.5455 115.231H9.05991e-05L0 100.5L7.69506 95.5001M50.5455 115.231L79.2289 95.5001M21.1472 135.453H9.05991e-05V150L21.1472 135.453ZM7.69506 95.5001H79.2289M7.69506 95.5001H9.05991e-05V78.5001H33.8591M7.69506 95.5001L33.8591 78.5001M79.2289 95.5001L103.943 78.5001M103.943 78.5001H33.8591M103.943 78.5001L128.656 61.5001M128.656 61.5001H60.0232M128.656 61.5001L150.5 46.4742M60.0232 61.5001L33.8591 78.5001M60.0232 61.5001H9.05991e-05V60.5L22.7918 46.4742M60.0232 61.5001L83.149 46.4742M22.7918 46.4742H83.149M83.149 46.4742L98.5 36.5H165L150.5 46.4742M83.149 46.4742H150.5M162.661 231.944L189.634 203.5M162.661 231.944L128 268.5H226.565M162.661 231.944L254.548 231.912M189.634 203.5H276.277M189.634 203.5L213.252 178.595M226.565 268.5L254.548 231.912M254.548 231.912L276.277 203.5M254.548 231.912L349.151 231.879M349.151 231.879L366.196 203.5M349.151 231.879L327.155 268.5L419.5 268.5L436.878 231.848M349.151 231.879L436.878 231.848M366.196 203.5H276.277M366.196 203.5L381.154 178.595M366.196 203.5H450.319M276.277 203.5L295.325 178.595M450.319 203.5L462.128 178.595M450.319 203.5H539.172M450.319 203.5L436.878 231.848M462.128 178.595H381.154M462.128 178.595L472.603 156.5M462.128 178.595H546.902M381.154 178.595H295.325M381.154 178.595L394.425 156.5M546.902 178.595L553.759 156.5M546.902 178.595H628.257M546.902 178.595L539.172 203.5M553.759 156.5H472.603M553.759 156.5L560.29 135.453M553.759 156.5H631.638M472.603 156.5L482.582 135.453M472.603 156.5H394.425M631.638 156.5L634.858 135.453M631.638 156.5H716.224M631.638 156.5L628.257 178.595M634.858 135.453H560.29M634.858 135.453L637.953 115.231M634.858 135.453H716.36M560.29 135.453L566.566 115.231M560.29 135.453H482.582M716.36 135.453L716.491 115.231M716.36 135.453L716.224 156.5M716.36 135.453H790.789M716.491 115.231L637.953 115.231M716.491 115.231L716.618 95.5001M716.491 115.231H787.868M637.953 115.231H566.566M637.953 115.231L640.972 95.5001M787.868 115.231L785.019 95.5001M787.868 115.231L790.789 135.453M787.868 115.231H860.305M785.019 95.5001H716.618M785.019 95.5001L782.565 78.5001M785.019 95.5001H854.214M716.618 95.5001H640.972M716.618 95.5001L716.728 78.5001M854.214 95.5001L848.966 78.5001M854.214 95.5001L860.305 115.231M854.214 95.5001H923.867M848.966 78.5001H782.565M848.966 78.5001L843.718 61.5001M848.966 78.5001H915.693M782.565 78.5001H716.728M782.565 78.5001L780.11 61.5001M915.693 78.5001L907.52 61.5001M915.693 78.5001L923.867 95.5001M915.693 78.5001H985.612M907.52 61.5001H843.718M907.52 61.5001L900.296 46.4742M907.52 61.5001H974.841M843.718 61.5001H780.11M843.718 61.5001L839.079 46.4742M974.841 61.5001L965.32 46.4742M974.841 61.5001H1034.54M974.841 61.5001L985.612 78.5001M965.32 46.4742H900.296M965.32 46.4742L959 36.5H1014.5L1022.5 46.4742M965.32 46.4742H1022.5M900.296 46.4742L895.5 36.5H836L839.079 46.4742M900.296 46.4742H839.079M1022.5 46.4742H1087.88M1022.5 46.4742L1034.54 61.5001M1102.01 61.5001L1087.88 46.4742M1102.01 61.5001H1034.54M1102.01 61.5001H1174.36M1102.01 61.5001L1118 78.5001M1087.88 46.4742L1078.5 36.5H1147.5L1158.21 46.4742M1087.88 46.4742H1158.21M1034.54 61.5001L1048.17 78.5001M1192.62 78.5001L1174.36 61.5001M1192.62 78.5001H1118M1192.62 78.5001H1251.79M1192.62 78.5001L1210.88 95.5001M1174.36 61.5001L1158.21 46.4742M1174.36 61.5001H1229.81M1118 78.5001L1133.99 95.5001M1118 78.5001H1048.17M1273.76 95.5001L1251.79 78.5001M1273.76 95.5001H1210.88M1273.76 95.5001H1344.93M1273.76 95.5001L1299.26 115.231M1251.79 78.5001L1229.81 61.5001M1251.79 78.5001H1320.32M1210.88 95.5001L1232.08 115.231M1210.88 95.5001H1133.99M1373.5 115.231L1344.93 95.5001M1373.5 115.231H1299.26M1373.5 115.231L1440.5 115.231V135.453H1402.78M1373.5 115.231L1402.78 135.453M1344.93 95.5001L1320.32 78.5001M1344.93 95.5001H1415.37M1299.26 115.231L1325.4 135.453M1299.26 115.231L1232.08 115.231M1402.78 135.453L1433.26 156.5M1402.78 135.453H1325.4M1352.61 156.5H1433.26M1352.61 156.5L1325.4 135.453M1352.61 156.5L1381.17 178.595M1352.61 156.5H1276.41M1433.26 156.5L1440.5 161.5L1440.5 156.5H1433.26ZM1325.4 135.453H1253.8M1300.14 178.595H1381.17M1300.14 178.595L1276.41 156.5M1300.14 178.595L1326.9 203.5M1300.14 178.595H1212.15M1381.17 178.595H1440.5V203.5H1413.36M1381.17 178.595L1413.36 203.5M1276.41 156.5H1191.37M1276.41 156.5L1253.8 135.453M1235.58 203.5H1326.9M1235.58 203.5L1212.15 178.595M1235.58 203.5L1261.97 231.562M1235.58 203.5H1148.39M1326.9 203.5H1413.36M1326.9 203.5L1357.01 231.529M1212.15 178.595H1128.42M1212.15 178.595L1191.37 156.5M1170.91 231.594L1261.97 231.562M1170.91 231.594L1148.39 203.5M1170.91 231.594L1200.5 268.5H1106L1082.63 231.624M1170.91 231.594L1082.63 231.624M1261.97 231.562L1296.71 268.5H1396.73L1357.01 231.529M1261.97 231.562L1357.01 231.529M1148.39 203.5H1064.81M1148.39 203.5L1128.42 178.595M1082.63 231.624L989.329 231.657M1082.63 231.624L1064.81 203.5M975.792 203.5L989.329 231.657M975.792 203.5H1064.81M975.792 203.5H887.555M975.792 203.5L963.818 178.595M989.329 231.657L1007.04 268.5H907.621L896.257 231.689M989.329 231.657L896.257 231.689M1064.81 203.5L1049.03 178.595M879.866 178.595L887.555 203.5M879.866 178.595H963.818M879.866 178.595H797.018M879.866 178.595L873.045 156.5M887.555 203.5H800.614M887.555 203.5L896.257 231.689M963.818 178.595H1049.03M963.818 178.595L953.195 156.5M793.828 156.5L797.018 178.595M793.828 156.5H873.045M793.828 156.5H716.224M793.828 156.5L790.789 135.453M797.018 178.595H716.081M797.018 178.595L800.614 203.5M873.045 156.5H953.195M873.045 156.5L866.548 135.453M716.224 156.5L716.081 178.595M790.789 135.453H866.548M572.69 95.5001L566.566 115.231M572.69 95.5001H640.972M572.69 95.5001H501.526M572.69 95.5001L577.965 78.5001M566.566 115.231L492.171 115.231M640.972 95.5001L643.573 78.5001M509.586 78.5001L501.526 95.5001M509.586 78.5001H577.965M509.586 78.5001H441.274M509.586 78.5001L517.646 61.5001M501.526 95.5001H431.063M501.526 95.5001L492.171 115.231M577.965 78.5001H643.573M577.965 78.5001L583.241 61.5001M451.484 61.5001L441.274 78.5001M451.484 61.5001H517.646M451.484 61.5001H384.88M451.484 61.5001L460.509 46.4742M441.274 78.5001H371.878M441.274 78.5001L431.063 95.5001M517.646 61.5001L524.771 46.4742M517.646 61.5001H583.241M396.372 46.4742L384.88 61.5001M396.372 46.4742H460.509M396.372 46.4742L404 36.5H348L338.541 46.4742M396.372 46.4742H338.541M384.88 61.5001H324.292M384.88 61.5001L371.878 78.5001M460.509 46.4742L466.5 36.5H529.5L524.771 46.4742M460.509 46.4742H524.771M338.541 46.4742L324.292 61.5001M324.292 61.5001L308.171 78.5001M308.171 78.5001H371.878M308.171 78.5001L292.05 95.5001M371.878 78.5001L358.876 95.5001M358.876 95.5001H431.063M358.876 95.5001L343.786 115.231M358.876 95.5001H292.05M431.063 95.5001L419.212 115.231M419.212 115.231H492.171M419.212 115.231L407.066 135.453M419.212 115.231L343.786 115.231M492.171 115.231L482.582 135.453M482.582 135.453H407.066M628.257 178.595H716.081M628.257 178.595L624.446 203.5M716.081 178.595L715.92 203.5M620.118 231.785L715.737 231.752M620.118 231.785L624.446 203.5M620.118 231.785L614.5 268.5H519L530.385 231.816M620.118 231.785L530.385 231.816M715.737 231.752L715.92 203.5M715.737 231.752L715.5 268.5L810 268.5L804.689 231.721M715.737 231.752L804.689 231.721M715.92 203.5H624.446M715.92 203.5H800.614M624.446 203.5H539.172M800.614 203.5L804.689 231.721M539.172 203.5L530.385 231.816M436.878 231.848L530.385 231.816M716.728 78.5001H643.573M716.728 78.5001L716.838 61.5001M643.573 78.5001L646.175 61.5001M780.11 61.5001H716.838M780.11 61.5001L777.94 46.4742M716.838 61.5001H646.175M716.838 61.5001L716.935 46.4742M839.079 46.4742H777.94M777.94 46.4742H716.935M648.474 46.4742L646.175 61.5001M648.474 46.4742H716.935M648.474 46.4742L650 36.5H591L587.905 46.4742M648.474 46.4742H587.905M646.175 61.5001H583.241M587.905 46.4742L583.241 61.5001M587.905 46.4742H524.771M343.786 115.231L328.32 135.453M343.786 115.231H273.339M328.32 135.453H407.066M328.32 135.453L312.223 156.5M328.32 135.453H254.163M407.066 135.453L394.425 156.5M234.204 156.5H312.223M234.204 156.5L254.163 135.453M234.204 156.5L213.252 178.595M312.223 156.5L295.325 178.595M312.223 156.5H394.425M254.163 135.453L273.339 115.231M213.252 178.595H295.325M273.339 115.231L292.05 95.5001M804.689 231.721L896.257 231.689M1128.42 178.595H1049.03M1128.42 178.595L1110.71 156.5M1049.03 178.595L1035.03 156.5M1191.37 156.5H1110.71M1191.37 156.5L1171.57 135.453M1110.71 156.5L1093.83 135.453M1110.71 156.5H1035.03M1253.8 135.453H1171.57M1253.8 135.453L1232.08 115.231M1171.57 135.453L1152.55 115.231M1171.57 135.453H1093.83M1232.08 115.231L1152.55 115.231M1133.99 95.5001L1152.55 115.231M1133.99 95.5001H1061.8M1152.55 115.231H1077.62M1077.62 115.231L1093.83 135.453M1077.62 115.231L1061.8 95.5001M1077.62 115.231H1008.89M1093.83 135.453H1021.7M1021.7 135.453L1035.03 156.5M1021.7 135.453H943.076M1021.7 135.453L1008.89 115.231M1035.03 156.5H953.195M953.195 156.5L943.076 135.453M866.548 135.453H943.076M866.548 135.453L860.305 115.231M943.076 135.453L933.353 115.231M860.305 115.231L933.353 115.231M923.867 95.5001L933.353 115.231M923.867 95.5001H996.384M933.353 115.231L1008.89 115.231M985.612 78.5001L996.384 95.5001M985.612 78.5001H1048.17M996.384 95.5001H1061.8M996.384 95.5001L1008.89 115.231M1048.17 78.5001L1061.8 95.5001M1210.39 46.4742H1158.21M1210.39 46.4742L1229.81 61.5001M1210.39 46.4742L1197.5 36.5H1259.5L1273.94 46.4742M1210.39 46.4742H1273.94M1229.81 61.5001H1295.7M1273.94 46.4742L1295.7 61.5001M1273.94 46.4742H1340.69M1320.32 78.5001L1295.7 61.5001M1320.32 78.5001H1389.47M1295.7 61.5001H1363.58M1363.58 61.5001L1340.69 46.4742M1363.58 61.5001L1389.47 78.5001M1363.58 61.5001H1424.93M1340.69 46.4742L1325.5 36.5H1386L1401.53 46.4742M1340.69 46.4742H1401.53M1401.53 46.4742H1440.5L1440.5 61.5001H1424.93M1401.53 46.4742L1424.93 61.5001M1415.37 95.5001L1389.47 78.5001M1415.37 95.5001L1440.5 112V95.5001H1415.37ZM1389.47 78.5001H1440.5L1440.5 71.5L1424.93 61.5001M1413.36 203.5L1440.5 224.5L1440.5 231.5L1357.01 231.529" stroke="#B65AFF"/>
</g>
<defs>
<filter id="filter0_d" x="-18.5" y="0.728516" width="1493.5" height="285.271" filterUnits="userSpaceOnUse" color-interpolation-filters="sRGB">
<feFlood flood-opacity="0" result="BackgroundImageFix"/>
<feColorMatrix in="SourceAlpha" type="matrix" values="0 0 0 0 0 0 0 0 0 0 0 0 0 0 0 0 0 0 127 0"/>
<feOffset dx="8" dy="-9"/>
<feGaussianBlur stdDeviation="13"/>
<feColorMatrix type="matrix" values="0 0 0 0 0.960784 0 0 0 0 0.0117647 0 0 0 0 0.823529 0 0 0 0.9 0"/>
<feBlend mode="normal" in2="BackgroundImageFix" result="effect1_dropShadow"/>
<feBlend mode="normal" in="SourceGraphic" in2="effect1_dropShadow" result="shape"/>
</filter>
<linearGradient id="paint0_linear" x1="-0.5" y1="268" x2="111.645" y2="825.439" gradientUnits="userSpaceOnUse">
<stop stop-color="#8F027A"/>
<stop offset="1" stop-color="#9F0286"/>
</linearGradient>
<linearGradient id="paint1_linear" x1="-0.5" y1="268" x2="111.645" y2="825.439" gradientUnits="userSpaceOnUse">
<stop stop-color="#8F027A"/>
<stop offset="1" stop-color="#9F0286"/>
</linearGradient>
<linearGradient id="paint2_linear" x1="-0.5" y1="268" x2="111.645" y2="825.439" gradientUnits="userSpaceOnUse">
<stop stop-color="#8F027A"/>
<stop offset="1" stop-color="#9F0286"/>
</linearGradient>
<linearGradient id="paint3_linear" x1="-0.5" y1="268" x2="111.645" y2="825.439" gradientUnits="userSpaceOnUse">
<stop stop-color="#8F027A"/>
<stop offset="1" stop-color="#9F0286"/>
</linearGradient>
<linearGradient id="paint4_linear" x1="-0.5" y1="268" x2="111.645" y2="825.439" gradientUnits="userSpaceOnUse">
<stop stop-color="#8F027A"/>
<stop offset="1" stop-color="#9F0286"/>
</linearGradient>
<linearGradient id="paint5_linear" x1="-0.5" y1="268" x2="111.645" y2="825.439" gradientUnits="userSpaceOnUse">
<stop stop-color="#8F027A"/>
<stop offset="1" stop-color="#9F0286"/>
</linearGradient>
<linearGradient id="paint6_linear" x1="-0.5" y1="268" x2="111.645" y2="825.439" gradientUnits="userSpaceOnUse">
<stop stop-color="#8F027A"/>
<stop offset="1" stop-color="#9F0286"/>
</linearGradient>
<linearGradient id="paint7_linear" x1="-0.5" y1="268" x2="111.645" y2="825.439" gradientUnits="userSpaceOnUse">
<stop stop-color="#8F027A"/>
<stop offset="1" stop-color="#9F0286"/>
</linearGradient>
<linearGradient id="paint8_linear" x1="-0.5" y1="268" x2="111.645" y2="825.439" gradientUnits="userSpaceOnUse">
<stop stop-color="#8F027A"/>
<stop offset="1" stop-color="#9F0286"/>
</linearGradient>
<linearGradient id="paint9_linear" x1="-0.5" y1="268" x2="111.645" y2="825.439" gradientUnits="userSpaceOnUse">
<stop stop-color="#8F027A"/>
<stop offset="1" stop-color="#9F0286"/>
</linearGradient>
<linearGradient id="paint10_linear" x1="-0.5" y1="268" x2="111.645" y2="825.439" gradientUnits="userSpaceOnUse">
<stop stop-color="#8F027A"/>
<stop offset="1" stop-color="#9F0286"/>
</linearGradient>
<linearGradient id="paint11_linear" x1="-0.5" y1="268" x2="111.645" y2="825.439" gradientUnits="userSpaceOnUse">
<stop stop-color="#8F027A"/>
<stop offset="1" stop-color="#9F0286"/>
</linearGradient>
<linearGradient id="paint12_linear" x1="-0.5" y1="268" x2="111.645" y2="825.439" gradientUnits="userSpaceOnUse">
<stop stop-color="#8F027A"/>
<stop offset="1" stop-color="#9F0286"/>
</linearGradient>
<linearGradient id="paint13_linear" x1="-0.5" y1="268" x2="111.645" y2="825.439" gradientUnits="userSpaceOnUse">
<stop stop-color="#8F027A"/>
<stop offset="1" stop-color="#9F0286"/>
</linearGradient>
<linearGradient id="paint14_linear" x1="-0.5" y1="268" x2="111.645" y2="825.439" gradientUnits="userSpaceOnUse">
<stop stop-color="#8F027A"/>
<stop offset="1" stop-color="#9F0286"/>
</linearGradient>
<linearGradient id="paint15_linear" x1="-0.5" y1="268" x2="111.645" y2="825.439" gradientUnits="userSpaceOnUse">
<stop stop-color="#8F027A"/>
<stop offset="1" stop-color="#9F0286"/>
</linearGradient>
<linearGradient id="paint16_linear" x1="-0.5" y1="268" x2="111.645" y2="825.439" gradientUnits="userSpaceOnUse">
<stop stop-color="#8F027A"/>
<stop offset="1" stop-color="#9F0286"/>
</linearGradient>
<linearGradient id="paint17_linear" x1="-0.5" y1="268" x2="111.645" y2="825.439" gradientUnits="userSpaceOnUse">
<stop stop-color="#8F027A"/>
<stop offset="1" stop-color="#9F0286"/>
</linearGradient>
<linearGradient id="paint18_linear" x1="-0.5" y1="268" x2="111.645" y2="825.439" gradientUnits="userSpaceOnUse">
<stop stop-color="#8F027A"/>
<stop offset="1" stop-color="#9F0286"/>
</linearGradient>
<linearGradient id="paint19_linear" x1="-0.5" y1="268" x2="111.645" y2="825.439" gradientUnits="userSpaceOnUse">
<stop stop-color="#8F027A"/>
<stop offset="1" stop-color="#9F0286"/>
</linearGradient>
<linearGradient id="paint20_linear" x1="-0.5" y1="268" x2="111.645" y2="825.439" gradientUnits="userSpaceOnUse">
<stop stop-color="#8F027A"/>
<stop offset="1" stop-color="#9F0286"/>
</linearGradient>
<linearGradient id="paint21_linear" x1="-0.5" y1="268" x2="111.645" y2="825.439" gradientUnits="userSpaceOnUse">
<stop stop-color="#8F027A"/>
<stop offset="1" stop-color="#9F0286"/>
</linearGradient>
<linearGradient id="paint22_linear" x1="-0.5" y1="268" x2="111.645" y2="825.439" gradientUnits="userSpaceOnUse">
<stop stop-color="#8F027A"/>
<stop offset="1" stop-color="#9F0286"/>
</linearGradient>
<linearGradient id="paint23_linear" x1="-0.5" y1="268" x2="111.645" y2="825.439" gradientUnits="userSpaceOnUse">
<stop stop-color="#8F027A"/>
<stop offset="1" stop-color="#9F0286"/>
</linearGradient>
<linearGradient id="paint24_linear" x1="-0.5" y1="268" x2="111.645" y2="825.439" gradientUnits="userSpaceOnUse">
<stop stop-color="#8F027A"/>
<stop offset="1" stop-color="#9F0286"/>
</linearGradient>
<linearGradient id="paint25_linear" x1="-0.5" y1="268" x2="111.645" y2="825.439" gradientUnits="userSpaceOnUse">
<stop stop-color="#8F027A"/>
<stop offset="1" stop-color="#9F0286"/>
</linearGradient>
<linearGradient id="paint26_linear" x1="-0.5" y1="268" x2="111.645" y2="825.439" gradientUnits="userSpaceOnUse">
<stop stop-color="#8F027A"/>
<stop offset="1" stop-color="#9F0286"/>
</linearGradient>
<linearGradient id="paint27_linear" x1="-0.5" y1="268" x2="111.645" y2="825.439" gradientUnits="userSpaceOnUse">
<stop stop-color="#8F027A"/>
<stop offset="1" stop-color="#9F0286"/>
</linearGradient>
<linearGradient id="paint28_linear" x1="-0.5" y1="268" x2="111.645" y2="825.439" gradientUnits="userSpaceOnUse">
<stop stop-color="#8F027A"/>
<stop offset="1" stop-color="#9F0286"/>
</linearGradient>
<linearGradient id="paint29_linear" x1="-0.5" y1="268" x2="111.645" y2="825.439" gradientUnits="userSpaceOnUse">
<stop stop-color="#8F027A"/>
<stop offset="1" stop-color="#9F0286"/>
</linearGradient>
<linearGradient id="paint30_linear" x1="-0.5" y1="268" x2="111.645" y2="825.439" gradientUnits="userSpaceOnUse">
<stop stop-color="#8F027A"/>
<stop offset="1" stop-color="#9F0286"/>
</linearGradient>
<linearGradient id="paint31_linear" x1="-0.5" y1="268" x2="111.645" y2="825.439" gradientUnits="userSpaceOnUse">
<stop stop-color="#8F027A"/>
<stop offset="1" stop-color="#9F0286"/>
</linearGradient>
<linearGradient id="paint32_linear" x1="-0.5" y1="268" x2="111.645" y2="825.439" gradientUnits="userSpaceOnUse">
<stop stop-color="#8F027A"/>
<stop offset="1" stop-color="#9F0286"/>
</linearGradient>
<linearGradient id="paint33_linear" x1="-0.5" y1="268" x2="111.645" y2="825.439" gradientUnits="userSpaceOnUse">
<stop stop-color="#8F027A"/>
<stop offset="1" stop-color="#9F0286"/>
</linearGradient>
<linearGradient id="paint34_linear" x1="-0.5" y1="268" x2="111.645" y2="825.439" gradientUnits="userSpaceOnUse">
<stop stop-color="#8F027A"/>
<stop offset="1" stop-color="#9F0286"/>
</linearGradient>
<linearGradient id="paint35_linear" x1="-0.5" y1="268" x2="111.645" y2="825.439" gradientUnits="userSpaceOnUse">
<stop stop-color="#8F027A"/>
<stop offset="1" stop-color="#9F0286"/>
</linearGradient>
<linearGradient id="paint36_linear" x1="-0.5" y1="268" x2="111.645" y2="825.439" gradientUnits="userSpaceOnUse">
<stop stop-color="#8F027A"/>
<stop offset="1" stop-color="#9F0286"/>
</linearGradient>
<linearGradient id="paint37_linear" x1="-0.5" y1="268" x2="111.645" y2="825.439" gradientUnits="userSpaceOnUse">
<stop stop-color="#8F027A"/>
<stop offset="1" stop-color="#9F0286"/>
</linearGradient>
<linearGradient id="paint38_linear" x1="-0.5" y1="268" x2="111.645" y2="825.439" gradientUnits="userSpaceOnUse">
<stop stop-color="#8F027A"/>
<stop offset="1" stop-color="#9F0286"/>
</linearGradient>
<linearGradient id="paint39_linear" x1="-0.5" y1="268" x2="111.645" y2="825.439" gradientUnits="userSpaceOnUse">
<stop stop-color="#8F027A"/>
<stop offset="1" stop-color="#9F0286"/>
</linearGradient>
<linearGradient id="paint40_linear" x1="-0.5" y1="268" x2="111.645" y2="825.439" gradientUnits="userSpaceOnUse">
<stop stop-color="#8F027A"/>
<stop offset="1" stop-color="#9F0286"/>
</linearGradient>
<linearGradient id="paint41_linear" x1="-0.5" y1="268" x2="111.645" y2="825.439" gradientUnits="userSpaceOnUse">
<stop stop-color="#8F027A"/>
<stop offset="1" stop-color="#9F0286"/>
</linearGradient>
<linearGradient id="paint42_linear" x1="-0.5" y1="268" x2="111.645" y2="825.439" gradientUnits="userSpaceOnUse">
<stop stop-color="#8F027A"/>
<stop offset="1" stop-color="#9F0286"/>
</linearGradient>
<linearGradient id="paint43_linear" x1="-0.5" y1="268" x2="111.645" y2="825.439" gradientUnits="userSpaceOnUse">
<stop stop-color="#8F027A"/>
<stop offset="1" stop-color="#9F0286"/>
</linearGradient>
<linearGradient id="paint44_linear" x1="-0.5" y1="268" x2="111.645" y2="825.439" gradientUnits="userSpaceOnUse">
<stop stop-color="#8F027A"/>
<stop offset="1" stop-color="#9F0286"/>
</linearGradient>
<linearGradient id="paint45_linear" x1="-0.5" y1="268" x2="111.645" y2="825.439" gradientUnits="userSpaceOnUse">
<stop stop-color="#8F027A"/>
<stop offset="1" stop-color="#9F0286"/>
</linearGradient>
<linearGradient id="paint46_linear" x1="-0.5" y1="268" x2="111.645" y2="825.439" gradientUnits="userSpaceOnUse">
<stop stop-color="#8F027A"/>
<stop offset="1" stop-color="#9F0286"/>
</linearGradient>
<linearGradient id="paint47_linear" x1="-0.5" y1="268" x2="111.645" y2="825.439" gradientUnits="userSpaceOnUse">
<stop stop-color="#8F027A"/>
<stop offset="1" stop-color="#9F0286"/>
</linearGradient>
<linearGradient id="paint48_linear" x1="-0.5" y1="268" x2="111.645" y2="825.439" gradientUnits="userSpaceOnUse">
<stop stop-color="#8F027A"/>
<stop offset="1" stop-color="#9F0286"/>
</linearGradient>
<linearGradient id="paint49_linear" x1="-0.5" y1="268" x2="111.645" y2="825.439" gradientUnits="userSpaceOnUse">
<stop stop-color="#8F027A"/>
<stop offset="1" stop-color="#9F0286"/>
</linearGradient>
<linearGradient id="paint50_linear" x1="-0.5" y1="268" x2="111.645" y2="825.439" gradientUnits="userSpaceOnUse">
<stop stop-color="#8F027A"/>
<stop offset="1" stop-color="#9F0286"/>
</linearGradient>
<linearGradient id="paint51_linear" x1="-0.5" y1="268" x2="111.645" y2="825.439" gradientUnits="userSpaceOnUse">
<stop stop-color="#8F027A"/>
<stop offset="1" stop-color="#9F0286"/>
</linearGradient>
<linearGradient id="paint52_linear" x1="-0.5" y1="268" x2="111.645" y2="825.439" gradientUnits="userSpaceOnUse">
<stop stop-color="#8F027A"/>
<stop offset="1" stop-color="#9F0286"/>
</linearGradient>
<linearGradient id="paint53_linear" x1="-0.5" y1="268" x2="111.645" y2="825.439" gradientUnits="userSpaceOnUse">
<stop stop-color="#8F027A"/>
<stop offset="1" stop-color="#9F0286"/>
</linearGradient>
<linearGradient id="paint54_linear" x1="-0.5" y1="268" x2="111.645" y2="825.439" gradientUnits="userSpaceOnUse">
<stop stop-color="#8F027A"/>
<stop offset="1" stop-color="#9F0286"/>
</linearGradient>
<linearGradient id="paint55_linear" x1="-0.5" y1="268" x2="111.645" y2="825.439" gradientUnits="userSpaceOnUse">
<stop stop-color="#8F027A"/>
<stop offset="1" stop-color="#9F0286"/>
</linearGradient>
<linearGradient id="paint56_linear" x1="-0.5" y1="268" x2="111.645" y2="825.439" gradientUnits="userSpaceOnUse">
<stop stop-color="#8F027A"/>
<stop offset="1" stop-color="#9F0286"/>
</linearGradient>
<linearGradient id="paint57_linear" x1="-0.5" y1="268" x2="111.645" y2="825.439" gradientUnits="userSpaceOnUse">
<stop stop-color="#8F027A"/>
<stop offset="1" stop-color="#9F0286"/>
</linearGradient>
<linearGradient id="paint58_linear" x1="-0.5" y1="268" x2="111.645" y2="825.439" gradientUnits="userSpaceOnUse">
<stop stop-color="#8F027A"/>
<stop offset="1" stop-color="#9F0286"/>
</linearGradient>
<linearGradient id="paint59_linear" x1="-0.5" y1="268" x2="111.645" y2="825.439" gradientUnits="userSpaceOnUse">
<stop stop-color="#8F027A"/>
<stop offset="1" stop-color="#9F0286"/>
</linearGradient>
<linearGradient id="paint60_linear" x1="-0.5" y1="268" x2="111.645" y2="825.439" gradientUnits="userSpaceOnUse">
<stop stop-color="#8F027A"/>
<stop offset="1" stop-color="#9F0286"/>
</linearGradient>
<linearGradient id="paint61_linear" x1="-0.5" y1="268" x2="111.645" y2="825.439" gradientUnits="userSpaceOnUse">
<stop stop-color="#8F027A"/>
<stop offset="1" stop-color="#9F0286"/>
</linearGradient>
<linearGradient id="paint62_linear" x1="0" y1="36" x2="73.1634" y2="489.245" gradientUnits="userSpaceOnUse">
<stop stop-color="#CE03B1"/>
<stop offset="1" stop-color="#E403C3"/>
</linearGradient>
</defs>
</svg>
