<svg width="79" height="50" viewBox="0 0 79 50" fill="none" xmlns="http://www.w3.org/2000/svg">
<path d="M21.2898 15.1342L20.8384 15.2988L20.3944 15.1151M21.2898 15.1342L20.3944 15.1151M21.2898 15.1342L33.4412 48.936L32.7106 49.2643M21.2898 15.1342L20.5 15.5L32.7106 49.2643M20.3944 15.1151L21 15.5L7.39208 49.1147L6.43947 48.8673L20.3944 15.1151ZM32.7106 49.2643L33.1621 49.0996L33.6125 49.2673M32.7106 49.2643L33.6125 49.2673M33.6125 49.2673L51.332 1.32953L50.5589 1M33.6125 49.2673L33 49L50.5589 1M51.4632 1.01001L51.0093 1.16767L50.5589 1M51.4632 1.01001L50.5589 1M51.4632 1.01001L68.0618 48.7998L67.1539 49.1151L50.6484 1.32953L51.4632 1.01001ZM7.94343 47.745L7.49767 47.5656L7.05525 47.3781M7.94343 47.745L7.05525 47.3781M7.94343 47.745L7.45268 48.9642M7.94343 47.745L7.05191 47.3861L6.56114 48.6052L7.45268 48.9642M7.05525 47.3781L6.53852 48.5972M7.05525 47.3781L7.9401 47.753L7.42336 48.9722L6.53852 48.5972M6.53852 48.5972L6.98094 48.7847V49.2652M6.53852 48.5972L6.25538 49.2652H6.98094M6.98094 49.2652H7.00691M6.98094 49.2652V48.3042H7.00691V49.2652M7.00691 49.2652V48.7847L7.45268 48.9642M7.00691 49.2652H7.33147L7.45268 48.9642M67.7536 47.9125L67.3002 48.0718L66.8455 48.2274M67.7536 47.9125L66.8455 48.2274M67.7536 47.9125L68.0032 48.6229M67.7536 47.9125L66.8468 48.2311L67.0966 48.9415L68.0032 48.6229M66.8455 48.2274L67.7549 47.9161L67.998 48.6265L67.0888 48.9378M66.8455 48.2274L67.0888 48.9378M67.5498 49.2628V48.7822L68.0032 48.6229M67.5498 49.2628H68.228L68.0032 48.6229M67.5498 49.2628H67.5435M67.5498 49.2628V48.3017H67.5435V49.2628M67.0888 48.9378L67.5435 48.7822V49.2628M67.0888 48.9378L67.2001 49.2628H67.5435M71.5797 48.196L72.0441 48.0722L71.5891 48.2269M71.5797 48.196L71.5839 48.2116L71.5891 48.2269M71.5797 48.196L72.5084 47.9483M71.5891 48.2269L72.4991 47.9176L72.7413 48.63L71.8314 48.9394M71.5891 48.2269L71.8314 48.9394M72.2928 49.2652V48.7847L72.7465 48.6263M72.2928 49.2652H72.9696L72.7465 48.6263M72.2928 49.2652H72.2863M72.2928 49.2652V48.3042H72.2863V49.2652M72.7465 48.6263L71.8392 48.9431L71.5901 48.2298M72.7465 48.6263L72.498 47.9144M71.8314 48.9394L72.2863 48.7847V49.2652M71.8314 48.9394L71.9422 49.2652H72.2863M56.3707 3.41972V2.9392L56.8251 2.78289M56.3707 3.41972H57.0442L56.8251 2.78289M56.3707 3.41972H56.366M56.3707 3.41972V2.45868H56.366V3.41972M56.8251 2.78289L56.3251 1.32953M56.8251 2.78289L55.9163 3.09552L55.4163 1.64218L56.3251 1.32953M56.3251 1.32953L55.8707 1.48586V1.00533M56.3251 1.32953L56.2136 1.00533H55.8707M55.8707 1.00533H55.8577M55.8707 1.00533V1.96638H55.8577V1.00533M55.8577 1.00533V1.48586L55.4041 1.64451M55.8577 1.00533H55.1806L55.4041 1.64451M55.4041 1.64451L55.9125 3.09786M55.4041 1.64451L56.3114 1.3272L56.8197 2.78055L55.9125 3.09786M55.9125 3.09786L56.366 2.9392V3.41972M55.9125 3.09786L56.0251 3.41972H56.366M25.7713 17.2553L26.2235 17.0927V17.5732M25.7713 17.2553L25.8855 17.5732H26.2235M25.7713 17.2553L25.2431 15.7858M25.7713 17.2553L26.6788 16.9845L26.1475 15.4607L25.2431 15.7858M26.2235 17.5732H26.2283M26.2235 17.5732V16.6121H26.2283V17.5732M26.2283 17.5732V17.0927L26.5799 16.6637M26.2283 17.5732L26.8758 17.5543L26.5799 16.6637M26.5799 16.6637L26.1541 15.4611M26.5799 16.6637L25.7758 17.2547L25.2494 15.7853L26.1541 15.4611M26.1541 15.4611L25.7018 15.6232V15.1427M26.1541 15.4611L26.0401 15.1427H25.7018M25.7018 15.1427H25.6953M25.7018 15.1427V16.1037H25.6953V15.1427M25.6953 15.1427V15.6232L25.2431 15.7858M25.6953 15.1427H25.0119L25.2431 15.7858M30.6339 16.0647L30.1818 16.2277M30.1818 16.2277L29.9057 15.4617L30.8763 15.3075L31.0858 15.9017M30.1818 16.2277L31.0858 15.9017M30.1818 16.2277L30.5523 17.2556L31.4565 16.9297L31.0858 15.9017M30.551 17.2559L31.0031 17.0927V17.5732M30.551 17.2559L30.6657 17.5732H31.0031M30.551 17.2559L30.0226 15.7919M30.551 17.2559L31.455 16.9295L30.9265 15.4656L30.0226 15.7919M31.0031 17.5732H31.0044M31.0031 17.5732V16.6121H31.0044M31.0056 17.5732V17.0927L31.4579 16.9306M31.0056 17.5732H31.6882L31.4579 16.9306M31.0056 17.5732H31.0044M31.0056 17.5732V16.6121H31.0044M31.4579 16.9306L30.9334 15.4667M31.4579 16.9306L30.5532 17.2547L30.0287 15.7908L30.9334 15.4667M30.9334 15.4667L30.481 15.6288V15.1482M30.9334 15.4667L30.8193 15.1482H30.481M30.481 15.1482H30.4745M30.481 15.1482V16.1093H30.4745V15.1482M30.4745 15.1482V15.6288L30.0226 15.7919M30.4745 15.1482H29.7901L30.0226 15.7919M51.466 13.1323L51.0093 13.2815L50.5574 13.1178M51.466 13.1323L51.0326 11.8061L50.5574 13.1178M51.466 13.1323L63.1716 48.9602L62.2174 49.1712L50.7461 13.4452L51.466 13.1323ZM50.5574 13.1178L51.3125 13.4452L38.5516 49.1061L37.5806 48.936L50.5574 13.1178ZM38.6823 46.8009V47.2815L38.23 47.1192M38.6823 46.8009H38.3442L38.23 47.1192M38.6823 46.8009H38.6958M38.6823 46.8009V47.762H38.6958V46.8009M38.23 47.1192L39.1347 47.4437L38.5957 48.9469L37.691 48.6225M38.23 47.1192L37.691 48.6225M39.1481 47.4438L38.6958 47.2815V46.8009M39.1481 47.4438L39.3787 46.8009H38.6958M39.1481 47.4438L38.6087 48.947M39.1481 47.4438L38.2435 47.1191L37.704 48.6224L38.6087 48.947M38.1564 49.2652V48.7847L38.6087 48.947M38.1564 49.2652H38.4944L38.6087 48.947M38.1564 49.2652H38.1434M38.1564 49.2652V48.3042H38.1434V49.2652M37.691 48.6225L38.1434 48.7847V49.2652M37.691 48.6225L37.4606 49.2652H38.1434M62.2473 47.2121V47.6926L61.7898 47.8395M62.2473 47.2121H61.5884L61.7898 47.8395M62.2473 47.2121H62.2576M62.2473 47.2121V48.1731H62.2576V47.2121M61.7898 47.8395L62.7049 47.5457L63.0555 48.6378L62.1405 48.9316M61.7898 47.8395L62.1405 48.9316M62.7141 47.5422L62.2576 47.6926V47.2121M62.7141 47.5422L62.6053 47.2121H62.2576M62.7141 47.5422L63.0738 48.6343M62.7141 47.5422L61.8012 47.843L62.1611 48.9351L63.0738 48.6343M62.6175 49.2652V48.7847L63.0738 48.6343M62.6175 49.2652H63.2818L63.0738 48.6343M62.6175 49.2652H62.598M62.6175 49.2652V48.3042H62.598V49.2652M62.1405 48.9316L62.598 48.7847V49.2652M62.1405 48.9316L62.2476 49.2652H62.598M11.5524 47.8042V48.2847L11.1149 48.0859M11.5524 47.8042H11.243L11.1149 48.0859M11.5524 47.8042H11.5654M11.5524 47.8042V48.7652H11.5654V47.8042M11.1149 48.0859L11.9898 48.4835L11.7626 48.9835L10.8877 48.5859M11.1149 48.0859L10.8877 48.5859M12.0111 48.4642L11.5654 48.2847V47.8042M12.0111 48.4642L12.2768 47.8042H11.5654M12.0111 48.4642L11.8098 48.9642M12.0111 48.4642L11.1196 48.1052L10.9183 48.6052L11.8098 48.9642M11.3641 49.2652V48.7847L11.8098 48.9642M11.3641 49.2652H11.6886L11.8098 48.9642M11.3641 49.2652H11.3251M11.3641 49.2652V48.3042H11.3251V49.2652M10.8877 48.5859L11.3251 48.7847V49.2652M10.8877 48.5859L10.5789 49.2652H11.3251M17.1558 48.5117L16.7082 48.3367V47.8561M17.1558 48.5117L17.4123 47.8561H16.7082M17.1558 48.5117L16.9804 48.9598M17.1558 48.5117L16.2607 48.1616L16.0854 48.6096L16.9804 48.9598M16.7082 47.8561H16.7017M16.7082 47.8561V48.8172H16.7017V47.8561M16.7017 47.8561V48.3367L16.2611 48.1451M16.7017 47.8561H16.3867L16.2611 48.1451M16.2611 48.1451L16.0663 48.5931M16.2611 48.1451L17.1424 48.5282L16.9476 48.9763L16.0663 48.5931M16.0663 48.5931L16.5069 48.7847V49.2652M16.0663 48.5931L15.7741 49.2652H16.5069M16.5069 49.2652H16.5329M16.5069 49.2652V48.3042H16.5329V49.2652M16.5329 49.2652V48.7847L16.9804 48.9598M16.5329 49.2652H16.8608L16.9804 48.9598M71.5901 48.2298L55.2991 1.3257L56.2466 1.10127L72.498 47.9144M71.5901 48.2298L72.498 47.9144M31.0044 17.5732V16.6121M25.13 15.4612L35.0297 43.0314L35.5 42.5L26.0971 15.3019L25.13 15.4612ZM30.5518 17.254L37.4351 36.5693L38 36L31.4571 16.9314L30.5518 17.254ZM11.7406 49.1361L23 21.5L22.5809 21.1033L10.7919 48.8632L11.7406 49.1361ZM16.9084 49.1438L25.8267 27.9526L24.9411 27.5793L15.9732 48.8578L16.9084 49.1438ZM1.00039 28.2565L78.2 28.2249L78.1996 27.2639L1 27.2954L1.00039 28.2565Z" stroke="#FAFF00"/>
</svg>
