<svg width="42" height="30" viewBox="0 0 42 30" fill="none" xmlns="http://www.w3.org/2000/svg">
<path d="M0.166992 2.50033C0.166992 1.94779 0.386486 1.41789 0.777186 1.02719C1.16789 0.636486 1.69779 0.416992 2.25033 0.416992H39.7503C40.3029 0.416992 40.8328 0.636486 41.2235 1.02719C41.6142 1.41789 41.8337 1.94779 41.8337 2.50033C41.8337 3.05286 41.6142 3.58276 41.2235 3.97346C40.8328 4.36416 40.3029 4.58366 39.7503 4.58366H2.25033C1.69779 4.58366 1.16789 4.36416 0.777186 3.97346C0.386486 3.58276 0.166992 3.05286 0.166992 2.50033Z" fill="#FAFF00"/>
<path d="M0.166992 15.0667C0.166992 14.5142 0.386486 13.9843 0.777186 13.5936C1.16789 13.2029 1.69779 12.9834 2.25033 12.9834H39.7503C40.3029 12.9834 40.8328 13.2029 41.2235 13.5936C41.6142 13.9843 41.8337 14.5142 41.8337 15.0667C41.8337 15.6193 41.6142 16.1492 41.2235 16.5399C40.8328 16.9306 40.3029 17.1501 39.7503 17.1501H2.25033C1.69779 17.1501 1.16789 16.9306 0.777186 16.5399C0.386486 16.1492 0.166992 15.6193 0.166992 15.0667Z" fill="#FAFF00"/>
<path d="M2.25033 25.5508C1.69779 25.5508 1.16789 25.7703 0.777186 26.161C0.386486 26.5517 0.166992 27.0816 0.166992 27.6341C0.166992 28.1866 0.386486 28.7166 0.777186 29.1073C1.16789 29.498 1.69779 29.7174 2.25033 29.7174H39.7503C40.3029 29.7174 40.8328 29.498 41.2235 29.1073C41.6142 28.7166 41.8337 28.1866 41.8337 27.6341C41.8337 27.0816 41.6142 26.5517 41.2235 26.161C40.8328 25.7703 40.3029 25.5508 39.7503 25.5508H2.25033Z" fill="#FAFF00"/>
</svg>
